<svg width="40" height="41" viewBox="0 0 40 41" fill="none" xmlns="http://www.w3.org/2000/svg">
    <path d="m28.817 6.988-.117 6.317c-.017.867.533 2.017 1.233 2.533l4.134 3.133c2.65 2 2.216 4.45-.95 5.45l-5.384 1.684c-.9.283-1.85 1.267-2.083 2.183l-1.283 4.9c-1.017 3.867-3.55 4.25-5.65.85l-2.934-4.75c-.533-.866-1.8-1.517-2.8-1.466l-5.566.283c-3.984.2-5.117-2.1-2.517-5.134l3.3-3.833c.617-.716.9-2.05.617-2.95l-1.7-5.4c-.984-3.167.783-4.917 3.933-3.883l4.917 1.616c.833.267 2.083.084 2.783-.433l5.133-3.7c2.784-1.983 5-.817 4.934 2.6z" fill="#fff"/>
    <path d="m35.733 34.205-5.05-5.05a1.258 1.258 0 0 0-1.766 0 1.258 1.258 0 0 0 0 1.766l5.05 5.05c.25.25.566.367.883.367.317 0 .633-.117.883-.367a1.258 1.258 0 0 0 0-1.766z" fill="#fff"/>
</svg>
