<svg width="113" height="111" viewBox="0 0 113 111" fill="none" xmlns="http://www.w3.org/2000/svg">
<path d="M14.2511 88.0036L12 77.4631H14.3561L15.4516 83.0797C15.4716 83.1499 15.4866 83.2453 15.4966 83.3658C15.5066 83.4862 15.5166 83.5665 15.5267 83.6067C15.5367 83.5565 15.5467 83.4712 15.5567 83.3507C15.5667 83.2302 15.5817 83.1299 15.6017 83.0496L16.9373 77.4631H18.9333L20.2839 83.0646C20.3039 83.155 20.3239 83.2654 20.3439 83.3959C20.3639 83.5264 20.3739 83.6067 20.3739 83.6368C20.3839 83.5967 20.3939 83.5414 20.4039 83.4712C20.4139 83.4009 20.424 83.3357 20.434 83.2754C20.444 83.2152 20.454 83.155 20.464 83.0947L21.5445 77.4631H23.9006L21.6345 88.0036H19.4735L18.0028 82.1461C17.9828 82.0557 17.9528 81.86 17.9128 81.5588C17.8728 81.9001 17.8427 82.0909 17.8227 82.131L16.4121 88.0036H14.2511Z" fill="white"/>
<path d="M27.9056 88.1843C26.7751 88.1843 25.8846 87.8279 25.2343 87.1152C24.584 86.4024 24.2589 85.4136 24.2589 84.1488C24.2589 82.914 24.584 81.9353 25.2343 81.2125C25.8946 80.4897 26.7851 80.1283 27.9056 80.1283C28.9261 80.1283 29.7565 80.4395 30.3968 81.0619C31.0371 81.6843 31.3572 82.5878 31.3572 83.7723C31.3572 84.2642 31.3372 84.6407 31.2972 84.9017H26.3899C26.4099 85.3835 26.56 85.7449 26.8401 85.9858C27.1202 86.2167 27.4754 86.3322 27.9056 86.3322C28.6059 86.3322 29.1812 86.0611 29.6314 85.519L30.892 86.7839C30.1216 87.7175 29.1262 88.1843 27.9056 88.1843ZM26.4049 83.2604H29.2712C29.1612 82.4071 28.6759 81.9804 27.8155 81.9804C27.4254 81.9804 27.1052 82.0959 26.8551 82.3268C26.605 82.5476 26.4549 82.8588 26.4049 83.2604Z" fill="white"/>
<path d="M37.5005 88.0036V87.4314C37.0403 87.9333 36.405 88.1843 35.5946 88.1843C34.7442 88.1843 34.0489 87.9684 33.5086 87.5368C32.9784 87.0951 32.7132 86.4677 32.7132 85.6546C32.7132 84.8615 33.0234 84.2542 33.6437 83.8326C34.264 83.4009 34.9893 83.1851 35.8197 83.1851C36.54 83.1851 37.1003 83.2754 37.5005 83.4561V83.0345C37.5005 82.6831 37.3904 82.4171 37.1703 82.2364C36.9502 82.0457 36.6451 81.9503 36.2549 81.9503C35.4245 81.9503 34.6041 82.2214 33.7937 82.7635L33.1184 81.092C34.0589 80.4496 35.1544 80.1283 36.405 80.1283C38.576 80.1283 39.6615 81.1322 39.6615 83.1399V88.0036H37.5005ZM36.0148 86.3472C36.555 86.3472 37.0503 86.1665 37.5005 85.8051V85.1125C37.1003 84.992 36.6651 84.9318 36.1949 84.9318C35.2944 84.9318 34.8442 85.1777 34.8442 85.6696C34.8442 86.1213 35.2344 86.3472 36.0148 86.3472Z" fill="white"/>
<path d="M44.0772 88.1843C42.7866 88.1843 42.1413 87.4816 42.1413 86.0762V82.2214H41.0908V80.309H42.1413V78.1708L44.3023 77.1318V80.309H45.9681V82.2214H44.3023V85.8654C44.3023 86.0059 44.3423 86.1163 44.4224 86.1966C44.5124 86.2669 44.6175 86.302 44.7375 86.302C45.1777 86.302 45.6179 86.2017 46.0581 86.0009L45.818 87.8379C45.3478 88.0688 44.7675 88.1843 44.0772 88.1843Z" fill="white"/>
<path d="M47.7894 88.0036V78.1407L49.9655 77.1318V81.0167C50.4557 80.4245 51.151 80.1283 52.0514 80.1283C52.7618 80.1283 53.3821 80.3542 53.9123 80.8059C54.4426 81.2577 54.7077 81.9905 54.7077 83.0044V88.0036H52.5317V83.8777C52.5317 83.3055 52.4366 82.8889 52.2465 82.6279C52.0665 82.3669 51.7563 82.2364 51.3161 82.2364C50.4157 82.2364 49.9655 82.7735 49.9655 83.8476V88.0036H47.7894Z" fill="white"/>
<path d="M60.1619 88.1843C59.0314 88.1843 58.141 87.8279 57.4907 87.1152C56.8404 86.4024 56.5152 85.4136 56.5152 84.1488C56.5152 82.914 56.8404 81.9353 57.4907 81.2125C58.151 80.4897 59.0414 80.1283 60.1619 80.1283C61.1824 80.1283 62.0128 80.4395 62.6531 81.0619C63.2934 81.6843 63.6135 82.5878 63.6135 83.7723C63.6135 84.2642 63.5935 84.6407 63.5535 84.9017H58.6462C58.6662 85.3835 58.8163 85.7449 59.0964 85.9858C59.3766 86.2167 59.7317 86.3322 60.1619 86.3322C60.8623 86.3322 61.4375 86.0611 61.8877 85.519L63.1483 86.7839C62.378 87.7175 61.3825 88.1843 60.1619 88.1843ZM58.6612 83.2604H61.5276C61.4175 82.4071 60.9323 81.9804 60.0719 81.9804C59.6817 81.9804 59.3616 82.0959 59.1114 82.3268C58.8613 82.5476 58.7112 82.8588 58.6612 83.2604Z" fill="white"/>
<path d="M65.4198 88.0036V80.309H67.5958V81.0017C67.6959 80.8009 67.8759 80.6052 68.1361 80.4144C68.3962 80.2237 68.7013 80.1283 69.0515 80.1283C69.6518 80.1283 70.157 80.3442 70.5672 80.7758L70.2821 82.7635C69.8619 82.4121 69.4067 82.2364 68.9164 82.2364C68.036 82.2364 67.5958 82.7685 67.5958 83.8326V88.0036H65.4198Z" fill="white"/>
<path d="M78.2791 88.0036L77.4987 85.9557H73.5518L72.7715 88.0036H70.2803L74.4223 77.4631H76.6133L80.7702 88.0036H78.2791ZM76.7333 83.8476L75.8329 81.5739C75.6928 81.2326 75.5878 80.9364 75.5178 80.6855C75.4777 80.8561 75.3727 81.1523 75.2026 81.5739L74.3022 83.8476H76.7333Z" fill="white"/>
<path d="M85.8772 88.1843C85.2169 88.1843 84.7116 87.9584 84.3615 87.5067V90.0213L82.1855 91.0001V80.309H84.3615V80.8361C84.7016 80.3642 85.2169 80.1283 85.9072 80.1283C86.8677 80.1283 87.633 80.4797 88.2033 81.1824C88.7836 81.875 89.0737 82.8689 89.0737 84.1638C89.0737 85.3986 88.7736 86.3773 88.1733 87.1001C87.573 87.8229 86.8076 88.1843 85.8772 88.1843ZM85.532 86.0762C85.9622 86.0762 86.2974 85.9105 86.5375 85.5793C86.7776 85.238 86.8977 84.7661 86.8977 84.1638C86.8977 82.8789 86.4425 82.2364 85.532 82.2364C85.0418 82.2364 84.6516 82.392 84.3615 82.7032V85.5793C84.4215 85.7098 84.5566 85.8252 84.7667 85.9256C84.9768 86.026 85.2319 86.0762 85.532 86.0762Z" fill="white"/>
<path d="M94.6411 88.1843C93.9808 88.1843 93.4755 87.9584 93.1254 87.5067V90.0213L90.9493 91.0001V80.309H93.1254V80.8361C93.4655 80.3642 93.9808 80.1283 94.6711 80.1283C95.6315 80.1283 96.3969 80.4797 96.9672 81.1824C97.5474 81.875 97.8376 82.8689 97.8376 84.1638C97.8376 85.3986 97.5374 86.3773 96.9372 87.1001C96.3369 87.8229 95.5715 88.1843 94.6411 88.1843ZM94.2959 86.0762C94.7261 86.0762 95.0613 85.9105 95.3014 85.5793C95.5415 85.238 95.6616 84.7661 95.6616 84.1638C95.6616 82.8789 95.2063 82.2364 94.2959 82.2364C93.8057 82.2364 93.4155 82.392 93.1254 82.7032V85.5793C93.1854 85.7098 93.3205 85.8252 93.5306 85.9256C93.7407 86.026 93.9958 86.0762 94.2959 86.0762Z" fill="white"/>
<g filter="url(#filter0_f_8573_21951)">
<path fill-rule="evenodd" clip-rule="evenodd" d="M72.1014 60.7846C70.7257 61.8936 69.1483 62.7991 67.398 63.439C58.825 66.5737 49.3521 62.1512 46.2398 53.561C44.6739 49.2388 45.0165 44.6851 46.8357 40.8277C41.4727 45.1508 39.1746 52.5666 41.6515 59.403C44.7638 67.9932 54.2367 72.4157 62.8097 69.281C67.0692 67.7235 70.3051 64.5936 72.1014 60.7846Z" fill="#FBFF22"/>
</g>
<path fill-rule="evenodd" clip-rule="evenodd" d="M72.1014 60.7846C70.7257 61.8936 69.1483 62.7991 67.398 63.439C58.825 66.5737 49.3521 62.1512 46.2398 53.561C44.6739 49.2388 45.0165 44.6851 46.8357 40.8277C41.4727 45.1508 39.1746 52.5666 41.6515 59.403C44.7638 67.9932 54.2367 72.4157 62.8097 69.281C67.0692 67.7235 70.3051 64.5936 72.1014 60.7846Z" fill="#FBFF22"/>
<defs>
<filter id="filter0_f_8573_21951" x="0.655762" y="0.827637" width="111.446" height="109.461" filterUnits="userSpaceOnUse" color-interpolation-filters="sRGB">
<feFlood flood-opacity="0" result="BackgroundImageFix"/>
<feBlend mode="normal" in="SourceGraphic" in2="BackgroundImageFix" result="shape"/>
<feGaussianBlur stdDeviation="20" result="effect1_foregroundBlur_8573_21951"/>
</filter>
</defs>
</svg>
