<svg width="42" height="24" viewBox="0 0 42 24" fill="none" xmlns="http://www.w3.org/2000/svg">
    <g filter="url(#25wqmi8wda)">
        <path d="M22.861 6.555c.501-.598.849-1.415.849-2.24 0-.113-.008-.226-.032-.315-.8.032-1.771.534-2.353 1.213-.453.517-.873 1.342-.873 2.166 0 .13.016.251.032.292.049.008.13.024.21.024.728 0 1.633-.485 2.167-1.14zm.574 1.31c-1.213 0-2.19.735-2.822.735-.67 0-1.544-.687-2.595-.687-1.997 0-4.018 1.65-4.018 4.754 0 1.94.744 3.986 1.674 5.304C16.466 19.086 17.16 20 18.156 20c.994 0 1.43-.655 2.652-.655 1.253 0 1.527.639 2.627.639 1.083 0 1.803-.995 2.482-1.973a8.608 8.608 0 0 0 1.1-2.272c-.065-.016-2.143-.865-2.143-3.234 0-2.053 1.633-2.975 1.722-3.048-1.067-1.544-2.708-1.592-3.16-1.592z" fill="#fff" fill-opacity=".9"/>
    </g>
    <defs>
        <filter id="25wqmi8wda" x="10" y="2" width="21.017" height="24" filterUnits="userSpaceOnUse" color-interpolation-filters="sRGB">
            <feFlood flood-opacity="0" result="BackgroundImageFix"/>
            <feColorMatrix in="SourceAlpha" values="0 0 0 0 0 0 0 0 0 0 0 0 0 0 0 0 0 0 127 0" result="hardAlpha"/>
            <feOffset dy="2"/>
            <feGaussianBlur stdDeviation="2"/>
            <feColorMatrix values="0 0 0 0 0 0 0 0 0 0 0 0 0 0 0 0 0 0 0.15 0"/>
            <feBlend in2="BackgroundImageFix" result="effect1_dropShadow_9506_7465"/>
            <feBlend in="SourceGraphic" in2="effect1_dropShadow_9506_7465" result="shape"/>
        </filter>
    </defs>
</svg>
