<svg width="28" height="24" viewBox="0 0 28 24" fill="none" xmlns="http://www.w3.org/2000/svg">
    <g filter="url(#0befdreoha)">
        <path d="M11.805 14.523c.646 0 1.252-.122 1.82-.367a4.773 4.773 0 0 0 2.516-2.523c.25-.568.375-1.175.375-1.82 0-.646-.125-1.253-.375-1.82a4.775 4.775 0 0 0-2.516-2.516 4.466 4.466 0 0 0-1.82-.375c-.646 0-1.253.125-1.82.375a4.775 4.775 0 0 0-2.523 2.516 4.548 4.548 0 0 0-.368 1.82c0 .645.122 1.252.367 1.82a4.87 4.87 0 0 0 1.016 1.508c.437.432.94.77 1.507 1.015a4.548 4.548 0 0 0 1.82.367zm0 1.297a5.811 5.811 0 0 1-2.328-.468 6.1 6.1 0 0 1-1.915-1.297 6.1 6.1 0 0 1-1.296-1.914 5.81 5.81 0 0 1-.47-2.329c0-.828.157-1.604.47-2.328A5.984 5.984 0 0 1 7.562 5.57a6.1 6.1 0 0 1 1.915-1.297 5.847 5.847 0 0 1 2.328-.468 5.81 5.81 0 0 1 2.328.468 6.1 6.1 0 0 1 1.914 1.297c.552.552.984 1.19 1.297 1.914.312.724.468 1.5.468 2.329 0 .828-.156 1.604-.468 2.328a6.102 6.102 0 0 1-1.297 1.914 6.1 6.1 0 0 1-1.914 1.297 5.81 5.81 0 0 1-2.328.468zm7.836 2.836a.958.958 0 0 1-.344-.062.84.84 0 0 1-.297-.196l-4.148-4.148 1.28-1.242 4.126 4.133c.088.083.15.18.187.289.042.11.063.221.063.336a.848.848 0 0 1-.117.445.819.819 0 0 1-.305.32.807.807 0 0 1-.445.125z" fill="#fff" fill-opacity=".9"/>
    </g>
    <defs>
        <filter id="0befdreoha" x="1.797" y="1.805" width="22.711" height="22.852" filterUnits="userSpaceOnUse" color-interpolation-filters="sRGB">
            <feFlood flood-opacity="0" result="BackgroundImageFix"/>
            <feColorMatrix in="SourceAlpha" values="0 0 0 0 0 0 0 0 0 0 0 0 0 0 0 0 0 0 127 0" result="hardAlpha"/>
            <feOffset dy="2"/>
            <feGaussianBlur stdDeviation="2"/>
            <feColorMatrix values="0 0 0 0 0 0 0 0 0 0 0 0 0 0 0 0 0 0 0.15 0"/>
            <feBlend in2="BackgroundImageFix" result="effect1_dropShadow_9506_7497"/>
            <feBlend in="SourceGraphic" in2="effect1_dropShadow_9506_7497" result="shape"/>
        </filter>
    </defs>
</svg>
