<svg width="28" height="24" viewBox="0 0 28 24" fill="none" xmlns="http://www.w3.org/2000/svg">
    <g filter="url(#1yj5ucf35a)">
        <path d="M13.648 18.492a.469.469 0 0 0 .25-.078c.089-.052.206-.148.352-.289l1.828-1.758a.289.289 0 0 0 .102-.195.286.286 0 0 0-.063-.219c-.245-.318-.586-.594-1.023-.828a2.983 2.983 0 0 0-1.446-.352 3 3 0 0 0-1.476.368c-.438.244-.779.53-1.024.859a.264.264 0 0 0-.039.188.37.37 0 0 0 .118.18l1.828 1.757c.14.14.255.237.343.29a.498.498 0 0 0 .25.077zm-4.39-4.101a.33.33 0 0 0 .258.109.38.38 0 0 0 .257-.133c.448-.505 1.019-.92 1.711-1.242a4.981 4.981 0 0 1 2.164-.477 4.887 4.887 0 0 1 2.18.493c.693.328 1.268.744 1.727 1.25a.326.326 0 0 0 .242.117.357.357 0 0 0 .242-.125l1.164-1.149a.317.317 0 0 0 .102-.203.315.315 0 0 0-.07-.219 5.98 5.98 0 0 0-1.43-1.242 7.342 7.342 0 0 0-1.922-.867 7.7 7.7 0 0 0-2.235-.32 7.7 7.7 0 0 0-2.234.32 7.366 7.366 0 0 0-1.914.867 5.979 5.979 0 0 0-1.43 1.242.29.29 0 0 0-.078.211c.005.073.04.144.102.211l1.164 1.157zm-3.125-3.133a.334.334 0 0 0 .25.117.344.344 0 0 0 .25-.125 9.39 9.39 0 0 1 3.18-2.227 9.646 9.646 0 0 1 3.835-.765c1.37 0 2.651.255 3.844.765a9.385 9.385 0 0 1 3.18 2.235.33.33 0 0 0 .242.101.31.31 0 0 0 .242-.117l1.032-1.039a.282.282 0 0 0 .101-.21.3.3 0 0 0-.07-.22c-.589-.724-1.331-1.37-2.227-1.937a11.628 11.628 0 0 0-2.976-1.344A11.551 11.551 0 0 0 13.648 6a11.63 11.63 0 0 0-3.375.492 11.63 11.63 0 0 0-2.976 1.344c-.89.568-1.63 1.213-2.219 1.937a.331.331 0 0 0-.078.22c.005.077.04.148.102.21l1.03 1.055z" fill="#fff" fill-opacity=".9"/>
    </g>
    <defs>
        <filter id="1yj5ucf35a" x="1" y="4" width="25.29" height="20.492" filterUnits="userSpaceOnUse" color-interpolation-filters="sRGB">
            <feFlood flood-opacity="0" result="BackgroundImageFix"/>
            <feColorMatrix in="SourceAlpha" values="0 0 0 0 0 0 0 0 0 0 0 0 0 0 0 0 0 0 127 0" result="hardAlpha"/>
            <feOffset dy="2"/>
            <feGaussianBlur stdDeviation="2"/>
            <feColorMatrix values="0 0 0 0 0 0 0 0 0 0 0 0 0 0 0 0 0 0 0.15 0"/>
            <feBlend in2="BackgroundImageFix" result="effect1_dropShadow_9506_7500"/>
            <feBlend in="SourceGraphic" in2="effect1_dropShadow_9506_7500" result="shape"/>
        </filter>
    </defs>
</svg>
