<svg width="30" height="24" viewBox="0 0 30 24" fill="none" xmlns="http://www.w3.org/2000/svg">
    <g filter="url(#bfuhwcgyda)">
        <path d="M6.156 16.852h12.477c.666 0 1.276-.055 1.828-.165a2.714 2.714 0 0 0 1.422-.757c.4-.401.654-.875.758-1.422a9.802 9.802 0 0 0 .156-1.828v-2.64c0-.668-.052-1.274-.156-1.821a2.679 2.679 0 0 0-.758-1.422 2.756 2.756 0 0 0-1.43-.758 9.307 9.307 0 0 0-1.82-.164H6.14a9.34 9.34 0 0 0-1.813.164c-.547.11-1.02.365-1.422.766a2.71 2.71 0 0 0-.758 1.414 9.666 9.666 0 0 0-.156 1.804v2.657c0 .672.052 1.28.156 1.828a2.68 2.68 0 0 0 .758 1.422c.401.396.875.648 1.422.758.552.109 1.162.164 1.828.164zm-.21-1.258c-.402 0-.798-.04-1.188-.117-.386-.079-.698-.235-.938-.47-.234-.234-.388-.543-.46-.929a6.332 6.332 0 0 1-.11-1.18V9.852c0-.412.036-.81.11-1.196.072-.39.226-.705.46-.945.235-.234.547-.388.938-.461a6.24 6.24 0 0 1 1.21-.117h12.876c.4 0 .794.039 1.18.117.39.073.705.23.945.469.234.234.388.544.46.93.074.385.11.778.11 1.18v3.07c0 .4-.036.794-.11 1.18-.072.384-.226.694-.46.929-.24.24-.555.398-.946.476-.385.073-.778.11-1.18.11H5.946zm17.913-2.211c.209-.016.425-.107.649-.274a2.1 2.1 0 0 0 .57-.703c.156-.297.235-.646.235-1.047a2.2 2.2 0 0 0-.235-1.039 2.1 2.1 0 0 0-.57-.703c-.224-.172-.44-.263-.649-.273v4.039zM5.633 14.602h13.531c.27 0 .49-.021.656-.063a.94.94 0 0 0 .43-.234.889.889 0 0 0 .234-.422c.047-.172.07-.393.07-.664V9.508a2.5 2.5 0 0 0-.07-.656.89.89 0 0 0-.234-.43.853.853 0 0 0-.43-.235 2.794 2.794 0 0 0-.656-.062H5.633c-.276 0-.498.02-.664.063a.81.81 0 0 0-.422.234.947.947 0 0 0-.242.43 2.794 2.794 0 0 0-.063.656v3.71c0 .272.021.493.063.665a.947.947 0 0 0 .242.422.94.94 0 0 0 .422.234c.166.042.388.063.664.063z" fill="#fff" fill-opacity=".9"/>
    </g>
    <defs>
        <filter id="bfuhwcgyda" x="-2.008" y="3.875" width="31.32" height="18.977" filterUnits="userSpaceOnUse" color-interpolation-filters="sRGB">
            <feFlood flood-opacity="0" result="BackgroundImageFix"/>
            <feColorMatrix in="SourceAlpha" values="0 0 0 0 0 0 0 0 0 0 0 0 0 0 0 0 0 0 127 0" result="hardAlpha"/>
            <feOffset dy="2"/>
            <feGaussianBlur stdDeviation="2"/>
            <feColorMatrix values="0 0 0 0 0 0 0 0 0 0 0 0 0 0 0 0 0 0 0.15 0"/>
            <feBlend in2="BackgroundImageFix" result="effect1_dropShadow_9506_7491"/>
            <feBlend in="SourceGraphic" in2="effect1_dropShadow_9506_7491" result="shape"/>
        </filter>
    </defs>
</svg>
