<svg width="31" height="31" viewBox="0 0 31 31" fill="none" xmlns="http://www.w3.org/2000/svg">
    <g filter="url(#d2tno6scea)">
        <path fill-rule="evenodd" clip-rule="evenodd" d="M14.657 19.59H8.535a6.018 6.018 0 0 1-6.017-6.018c0-3.323 2.72-6.017 6.043-6.017 1.097 0 2.128.29 3.02.8a8.79 8.79 0 0 1 8.383-6.159c4.803 0 8.723 3.894 8.723 8.697a8.697 8.697 0 0 1-8.697 8.696h-5.333z" fill="#fff"/>
    </g>
    <path d="m19.34 14.406 5.06-5.437-1.176 4.137 2.236.709-5.296 5.554 1.294-4.136-2.118-.827z" fill="url(#orkhht5i7b)"/>
    <path d="m12.455 20.805 5.06-5.436-1.176 4.137 2.236.709-5.296 5.554 1.294-4.136-2.118-.828z" fill="url(#v89om62xtc)"/>
    <path d="m5.57 16.006 5.06-5.437-1.176 4.137 2.236.709-5.296 5.554 1.294-4.136-2.118-.827z" fill="url(#ay63e9rrhd)"/>
    <path d="m21.621 21.512.23 1.117c.127.617-.235 1.274-.81 1.468-.575.193-1.144-.15-1.27-.768-.128-.617.235-1.274.81-1.467l1.04-.35zM10.146 21.512l.23 1.117c.128.617-.235 1.274-.81 1.468-.574.193-1.143-.15-1.27-.768-.127-.617.235-1.274.81-1.467l1.04-.35zM4.026 21.512l.23 1.117c.128.617-.235 1.274-.81 1.468-.574.193-1.143-.15-1.27-.768-.128-.617.235-1.274.81-1.467l1.04-.35zM7.086 25.512l.23 1.117c.128.617-.235 1.274-.81 1.468-.574.193-1.143-.15-1.27-.768-.128-.617.235-1.274.81-1.467l1.04-.35zM12.441 25.512l.23 1.117c.128.617-.235 1.274-.81 1.468-.574.193-1.143-.15-1.27-.768-.127-.617.235-1.274.81-1.467l1.04-.35zM17.796 25.512l.23 1.117c.128.617-.235 1.274-.81 1.468-.574.193-1.143-.15-1.27-.768-.128-.617.235-1.274.81-1.467l1.04-.35z" fill="#fff"/>
    <defs>
        <radialGradient id="orkhht5i7b" cx="0" cy="0" r="1" gradientUnits="userSpaceOnUse" gradientTransform="matrix(-4.27742 8.0345 -6.6991 -3.56648 23.617 11.335)">
            <stop stop-color="#FFF72C"/>
            <stop offset="1" stop-color="#DF7800"/>
        </radialGradient>
        <radialGradient id="v89om62xtc" cx="0" cy="0" r="1" gradientUnits="userSpaceOnUse" gradientTransform="matrix(-4.27742 8.0345 -6.6991 -3.56648 16.733 17.735)">
            <stop stop-color="#FFF72C"/>
            <stop offset="1" stop-color="#DF7800"/>
        </radialGradient>
        <radialGradient id="ay63e9rrhd" cx="0" cy="0" r="1" gradientUnits="userSpaceOnUse" gradientTransform="rotate(118.03 1.04 9.424) scale(9.10216 7.58932)">
            <stop stop-color="#FFF72C"/>
            <stop offset="1" stop-color="#DF7800"/>
        </radialGradient>
        <filter id="d2tno6scea" x="-15.482" y="-12.804" width="52.169" height="43.393" filterUnits="userSpaceOnUse" color-interpolation-filters="sRGB">
            <feFlood flood-opacity="0" result="BackgroundImageFix"/>
            <feBlend in="SourceGraphic" in2="BackgroundImageFix" result="shape"/>
            <feColorMatrix in="SourceAlpha" values="0 0 0 0 0 0 0 0 0 0 0 0 0 0 0 0 0 0 127 0" result="hardAlpha"/>
            <feOffset dx="8" dy="-15"/>
            <feGaussianBlur stdDeviation="15"/>
            <feComposite in2="hardAlpha" operator="arithmetic" k2="-1" k3="1"/>
            <feColorMatrix values="0 0 0 0 0 0 0 0 0 0 0 0 0 0 0 0 0 0 0.2 0"/>
            <feBlend in2="shape" result="effect1_innerShadow_5857_16605"/>
            <feColorMatrix in="SourceAlpha" values="0 0 0 0 0 0 0 0 0 0 0 0 0 0 0 0 0 0 127 0" result="hardAlpha"/>
            <feOffset dx="-18" dy="11"/>
            <feGaussianBlur stdDeviation="15"/>
            <feComposite in2="hardAlpha" operator="arithmetic" k2="-1" k3="1"/>
            <feColorMatrix values="0 0 0 0 1 0 0 0 0 1 0 0 0 0 1 0 0 0 1 0"/>
            <feBlend in2="effect1_innerShadow_5857_16605" result="effect2_innerShadow_5857_16605"/>
        </filter>
    </defs>
</svg>
