<svg width="29" height="31" viewBox="0 0 29 31" fill="none" xmlns="http://www.w3.org/2000/svg">
<g filter="url(#filter0_d_5793_11037)">
<path d="M16.0001 21.1045C20.0447 21.1045 23.3234 17.6997 23.3234 13.4995C23.3234 9.2994 20.0447 5.89453 16.0001 5.89453C11.9555 5.89453 8.67676 9.2994 8.67676 13.4995C8.67676 17.6997 11.9555 21.1045 16.0001 21.1045Z" stroke="#444E72" stroke-width="1.5" stroke-linecap="round" stroke-linejoin="round"/>
<path d="M24.0445 21.8536L23.898 21.7015M23.898 5.2981L24.0445 5.14601L23.898 5.2981ZM7.95567 21.8536L8.10213 21.7015L7.95567 21.8536ZM16.0001 1.8934V1.7998V1.8934ZM16.0001 25.1998V25.1062V25.1998ZM4.82353 13.4998H4.7334H4.82353ZM27.2667 13.4998H27.1766H27.2667ZM8.10213 5.2981L7.95567 5.14601L8.10213 5.2981Z" stroke="#444E72" stroke-width="2" stroke-linecap="round" stroke-linejoin="round"/>
</g>
<defs>
<filter id="filter0_d_5793_11037" x="0.733398" y="0.799805" width="27.5332" height="29.3999" filterUnits="userSpaceOnUse" color-interpolation-filters="sRGB">
<feFlood flood-opacity="0" result="BackgroundImageFix"/>
<feColorMatrix in="SourceAlpha" type="matrix" values="0 0 0 0 0 0 0 0 0 0 0 0 0 0 0 0 0 0 127 0" result="hardAlpha"/>
<feOffset dx="-2" dy="3"/>
<feGaussianBlur stdDeviation="0.5"/>
<feColorMatrix type="matrix" values="0 0 0 0 0 0 0 0 0 0 0 0 0 0 0 0 0 0 0.1 0"/>
<feBlend mode="normal" in2="BackgroundImageFix" result="effect1_dropShadow_5793_11037"/>
<feBlend mode="normal" in="SourceGraphic" in2="effect1_dropShadow_5793_11037" result="shape"/>
</filter>
</defs>
</svg>
