<svg width="86" height="14" viewBox="0 0 86 14" fill="none" xmlns="http://www.w3.org/2000/svg">
<path d="M2.25106 11.0036L0 0.463108H2.35611L3.45162 6.07967C3.47163 6.14994 3.48664 6.2453 3.49664 6.36577C3.50665 6.48623 3.51665 6.56654 3.52665 6.60669C3.53666 6.5565 3.54666 6.47117 3.55667 6.35071C3.56667 6.23025 3.58168 6.12986 3.60169 6.04955L4.93732 0.463108H6.93325L8.28389 6.06461C8.3039 6.15496 8.32391 6.26538 8.34391 6.39588C8.36392 6.52638 8.37393 6.60669 8.37393 6.63681C8.38393 6.59665 8.39394 6.54144 8.40394 6.47117C8.41395 6.4009 8.42395 6.33565 8.43396 6.27542C8.44396 6.21519 8.45397 6.15496 8.46397 6.09473L9.54448 0.463108H11.9006L9.63452 11.0036H7.47351L6.00282 5.14608C5.98281 5.05574 5.95279 4.85999 5.91277 4.55883C5.87276 4.90014 5.84274 5.09087 5.82273 5.13103L4.41207 11.0036H2.25106Z" fill="white"/>
<path d="M15.9056 11.1843C14.7751 11.1843 13.8846 10.8279 13.2343 10.1152C12.584 9.40242 12.2589 8.41363 12.2589 7.14877C12.2589 5.91403 12.584 4.93527 13.2343 4.2125C13.8946 3.48973 14.7851 3.12834 15.9056 3.12834C16.9261 3.12834 17.7565 3.43953 18.3968 4.06192C19.0371 4.68431 19.3572 5.58778 19.3572 6.77233C19.3572 7.26422 19.3372 7.64066 19.2972 7.90166H14.3899C14.4099 8.38351 14.56 8.7449 14.8401 8.98582C15.1202 9.21671 15.4754 9.33215 15.9056 9.33215C16.6059 9.33215 17.1812 9.06111 17.6314 8.51903L18.892 9.78389C18.1216 10.7175 17.1262 11.1843 15.9056 11.1843ZM14.4049 6.26036H17.2712C17.1612 5.40709 16.6759 4.98045 15.8155 4.98045C15.4254 4.98045 15.1052 5.09589 14.8551 5.32678C14.605 5.54763 14.4549 5.85882 14.4049 6.26036Z" fill="white"/>
<path d="M25.5005 11.0036V10.4314C25.0403 10.9333 24.405 11.1843 23.5946 11.1843C22.7442 11.1843 22.0489 10.9684 21.5086 10.5368C20.9784 10.0951 20.7132 9.46767 20.7132 8.65455C20.7132 7.86151 21.0234 7.25418 21.6437 6.83256C22.264 6.4009 22.9893 6.18507 23.8197 6.18507C24.54 6.18507 25.1003 6.27542 25.5005 6.45611V6.03449C25.5005 5.68315 25.3904 5.41712 25.1703 5.23643C24.9502 5.0457 24.6451 4.95033 24.2549 4.95033C23.4245 4.95033 22.6041 5.22137 21.7937 5.76345L21.1184 4.09204C22.0589 3.44957 23.1544 3.12834 24.405 3.12834C26.576 3.12834 27.6615 4.13219 27.6615 6.1399V11.0036H25.5005ZM24.0148 9.34721C24.555 9.34721 25.0503 9.16652 25.5005 8.80513V8.11247C25.1003 7.99201 24.6651 7.93178 24.1949 7.93178C23.2944 7.93178 22.8442 8.17772 22.8442 8.66961C22.8442 9.12134 23.2344 9.34721 24.0148 9.34721Z" fill="white"/>
<path d="M32.0772 11.1843C30.7866 11.1843 30.1413 10.4816 30.1413 9.07617V5.22137H29.0908V3.30903H30.1413V1.17082L32.3023 0.131836V3.30903H33.9681V5.22137H32.3023V8.86536C32.3023 9.0059 32.3423 9.11632 32.4224 9.19663C32.5124 9.2669 32.6175 9.30204 32.7375 9.30204C33.1777 9.30204 33.6179 9.20165 34.0581 9.00088L33.818 10.8379C33.3478 11.0688 32.7675 11.1843 32.0772 11.1843Z" fill="white"/>
<path d="M35.7894 11.0036V1.14071L37.9655 0.131836V4.01675C38.4557 3.42448 39.151 3.12834 40.0514 3.12834C40.7618 3.12834 41.3821 3.35421 41.9123 3.80594C42.4426 4.25767 42.7077 4.99049 42.7077 6.00438V11.0036H40.5317V6.87773C40.5317 6.30553 40.4366 5.88894 40.2465 5.62793C40.0665 5.36693 39.7563 5.23643 39.3161 5.23643C38.4157 5.23643 37.9655 5.77349 37.9655 6.84761V11.0036H35.7894Z" fill="white"/>
<path d="M48.1619 11.1843C47.0314 11.1843 46.141 10.8279 45.4907 10.1152C44.8404 9.40242 44.5152 8.41363 44.5152 7.14877C44.5152 5.91403 44.8404 4.93527 45.4907 4.2125C46.151 3.48973 47.0414 3.12834 48.1619 3.12834C49.1824 3.12834 50.0128 3.43953 50.6531 4.06192C51.2934 4.68431 51.6135 5.58778 51.6135 6.77233C51.6135 7.26422 51.5935 7.64066 51.5535 7.90166H46.6462C46.6662 8.38351 46.8163 8.7449 47.0964 8.98582C47.3766 9.21671 47.7317 9.33215 48.1619 9.33215C48.8623 9.33215 49.4375 9.06111 49.8877 8.51903L51.1483 9.78389C50.378 10.7175 49.3825 11.1843 48.1619 11.1843ZM46.6612 6.26036H49.5276C49.4175 5.40709 48.9323 4.98045 48.0719 4.98045C47.6817 4.98045 47.3616 5.09589 47.1114 5.32678C46.8613 5.54763 46.7112 5.85882 46.6612 6.26036Z" fill="white"/>
<path d="M53.4198 11.0036V3.30903H55.5958V4.00169C55.6959 3.80092 55.8759 3.60517 56.1361 3.41444C56.3962 3.2237 56.7013 3.12834 57.0515 3.12834C57.6518 3.12834 58.157 3.34417 58.5672 3.77582L58.2821 5.76345C57.8619 5.4121 57.4067 5.23643 56.9164 5.23643C56.036 5.23643 55.5958 5.76847 55.5958 6.83256V11.0036H53.4198Z" fill="white"/>
<path d="M66.2791 11.0036L65.4987 8.95571H61.5518L60.7715 11.0036H58.2803L62.4223 0.463108H64.6133L68.7702 11.0036H66.2791ZM64.7333 6.84761L63.8329 4.57389C63.6928 4.23258 63.5878 3.93644 63.5178 3.68548C63.4777 3.85613 63.3727 4.15227 63.2026 4.57389L62.3022 6.84761H64.7333Z" fill="white"/>
<path d="M73.8772 11.1843C73.2169 11.1843 72.7116 10.9584 72.3615 10.5067V13.0213L70.1855 14.0001V3.30903H72.3615V3.83606C72.7016 3.36424 73.2169 3.12834 73.9072 3.12834C74.8677 3.12834 75.633 3.47969 76.2033 4.18238C76.7836 4.87504 77.0737 5.86886 77.0737 7.16383C77.0737 8.39857 76.7736 9.37733 76.1733 10.1001C75.573 10.8229 74.8076 11.1843 73.8772 11.1843ZM73.532 9.07617C73.9622 9.07617 74.2974 8.91053 74.5375 8.57926C74.7776 8.23795 74.8977 7.76614 74.8977 7.16383C74.8977 5.8789 74.4425 5.23643 73.532 5.23643C73.0418 5.23643 72.6516 5.39203 72.3615 5.70322V8.57926C72.4215 8.70976 72.5566 8.82521 72.7667 8.92559C72.9768 9.02598 73.2319 9.07617 73.532 9.07617Z" fill="white"/>
<path d="M82.6411 11.1843C81.9808 11.1843 81.4755 10.9584 81.1254 10.5067V13.0213L78.9493 14.0001V3.30903H81.1254V3.83606C81.4655 3.36424 81.9808 3.12834 82.6711 3.12834C83.6315 3.12834 84.3969 3.47969 84.9672 4.18238C85.5474 4.87504 85.8376 5.86886 85.8376 7.16383C85.8376 8.39857 85.5374 9.37733 84.9372 10.1001C84.3369 10.8229 83.5715 11.1843 82.6411 11.1843ZM82.2959 9.07617C82.7261 9.07617 83.0613 8.91053 83.3014 8.57926C83.5415 8.23795 83.6616 7.76614 83.6616 7.16383C83.6616 5.8789 83.2063 5.23643 82.2959 5.23643C81.8057 5.23643 81.4155 5.39203 81.1254 5.70322V8.57926C81.1854 8.70976 81.3205 8.82521 81.5306 8.92559C81.7407 9.02598 81.9958 9.07617 82.2959 9.07617Z" fill="white"/>
</svg>
