<svg width="148" height="25" viewBox="0 0 148 25" fill="none" xmlns="http://www.w3.org/2000/svg">
    <path d="M3.881 19.81 0 1.551h4.062l1.89 9.729c.034.121.06.286.077.495.017.209.034.348.052.417.017-.086.034-.234.051-.443a3.37 3.37 0 0 1 .078-.522l2.303-9.676h3.441l2.329 9.702c.035.157.069.348.104.574.034.226.051.365.051.418a3.01 3.01 0 0 0 .052-.287c.017-.122.034-.235.052-.34l.052-.312 1.862-9.755h4.063l-3.907 18.257h-3.726L10.35 9.663a15.61 15.61 0 0 1-.155-1.017c-.07.591-.121.922-.155.991L7.607 19.81H3.881zM27.424 20.122c-1.949 0-3.484-.617-4.605-1.851-1.122-1.235-1.682-2.948-1.682-5.139 0-2.138.56-3.834 1.681-5.086 1.139-1.252 2.674-1.878 4.606-1.878 1.76 0 3.191.54 4.295 1.617 1.104 1.079 1.656 2.643 1.656 4.695 0 .852-.034 1.504-.103 1.957H24.81c.034.834.293 1.46.776 1.877.483.4 1.096.6 1.837.6 1.208 0 2.2-.47 2.976-1.408l2.173 2.19c-1.328 1.618-3.044 2.426-5.149 2.426zm-2.587-8.528h4.942c-.19-1.478-1.027-2.217-2.51-2.217-.673 0-1.225.2-1.656.6-.431.382-.69.921-.776 1.617zM43.968 19.81v-.992c-.794.87-1.89 1.304-3.287 1.304-1.466 0-2.665-.373-3.596-1.121-.914-.765-1.371-1.852-1.371-3.26 0-1.374.534-2.426 1.604-3.156 1.07-.748 2.32-1.122 3.752-1.122 1.242 0 2.208.157 2.898.47v-.73c0-.61-.19-1.07-.57-1.383-.38-.33-.905-.496-1.578-.496-1.432 0-2.846.47-4.243 1.409l-1.165-2.895c1.622-1.113 3.51-1.67 5.667-1.67 3.743 0 5.615 1.74 5.615 5.217v8.424h-3.726zm-2.562-2.87c.931 0 1.785-.313 2.562-.939v-1.2a7.748 7.748 0 0 0-2.252-.312c-1.552 0-2.328.426-2.328 1.278 0 .782.672 1.173 2.018 1.173zM55.307 20.122c-2.225 0-3.338-1.217-3.338-3.651V9.794h-1.811V6.48h1.811V2.778l3.726-1.8v5.503h2.872v3.313h-2.872v6.312c0 .243.07.434.207.574a.855.855 0 0 0 .544.182c.759 0 1.518-.174 2.277-.521l-.414 3.181c-.811.4-1.812.6-3.002.6zM61.708 19.81V2.725L65.46.978v6.73c.845-1.027 2.044-1.54 3.596-1.54 1.225 0 2.294.392 3.209 1.174.914.783 1.371 2.052 1.371 3.808v8.66h-3.752v-7.147c0-.991-.164-1.713-.492-2.165-.31-.452-.845-.678-1.604-.678-1.552 0-2.328.93-2.328 2.79v7.2h-3.752zM83.04 20.122c-1.95 0-3.484-.617-4.606-1.851-1.12-1.235-1.681-2.948-1.681-5.139 0-2.138.56-3.834 1.681-5.086 1.139-1.252 2.674-1.878 4.606-1.878 1.76 0 3.191.54 4.295 1.617 1.104 1.079 1.656 2.643 1.656 4.695 0 .852-.034 1.504-.103 1.957h-8.461c.034.834.293 1.46.776 1.877.483.4 1.095.6 1.837.6 1.208 0 2.2-.47 2.976-1.408l2.173 2.19c-1.328 1.618-3.044 2.426-5.149 2.426zm-2.587-8.528h4.942c-.19-1.478-1.027-2.217-2.51-2.217-.673 0-1.225.2-1.656.6-.431.382-.69.921-.776 1.617zM92.106 19.81V6.48h3.752v1.2c.172-.348.483-.687.931-1.017.448-.33.975-.496 1.578-.496 1.035 0 1.907.374 2.614 1.122l-.492 3.443c-.724-.609-1.51-.913-2.355-.913-1.517 0-2.276.921-2.276 2.765v7.224h-3.752zM114.277 19.81l-1.345-3.548h-6.805l-1.346 3.547h-4.295l7.142-18.257h3.777l7.168 18.257h-4.296zm-2.665-7.2-1.552-3.938a14.244 14.244 0 0 1-.544-1.539c-.069.296-.25.809-.543 1.54l-1.552 3.938h4.191zM127.378 20.122c-1.138 0-2.01-.39-2.613-1.173v4.355L121.013 25V6.48h3.752v.913c.586-.817 1.475-1.226 2.665-1.226 1.656 0 2.975.609 3.959 1.826 1 1.2 1.5 2.921 1.5 5.164 0 2.14-.517 3.835-1.552 5.086-1.035 1.252-2.355 1.878-3.959 1.878zm-.595-3.651c.742 0 1.32-.287 1.734-.86.414-.592.621-1.41.621-2.453 0-2.225-.785-3.338-2.355-3.338-.845 0-1.518.27-2.018.809v4.981c.103.226.336.426.698.6.363.174.802.26 1.32.26zM142.489 20.122c-1.139 0-2.01-.39-2.614-1.173v4.355L136.123 25V6.48h3.752v.913c.587-.817 1.475-1.226 2.665-1.226 1.656 0 2.976.609 3.959 1.826 1.001 1.2 1.501 2.921 1.501 5.164 0 2.14-.518 3.835-1.553 5.086-1.034 1.252-2.354 1.878-3.958 1.878zm-.596-3.651c.742 0 1.32-.287 1.734-.86.414-.592.621-1.41.621-2.453 0-2.225-.785-3.338-2.355-3.338-.845 0-1.517.27-2.018.809v4.981c.104.226.337.426.699.6.362.174.802.26 1.319.26z" fill="#fff"/>
</svg>
